#tb 0: 1/22050
#media_type 0: audio
#codec_id 0: pcm_s16le
#sample_rate 0: 22050
#channel_layout 0: 3
#channel_layout_name 0: stereo
0,          0,          0,     7456,    29824, 0x77e265b7
0,       7456,       7456,      736,     2944, 0x8dcdf50b
0,       8192,       8192,      736,     2944, 0xb135cd2a
0,       8928,       8928,      736,     2944, 0x54a6e73f
0,       9664,       9664,      736,     2944, 0x050ccd4e
0,      10400,      10400,      736,     2944, 0x6b68db44
0,      11136,      11136,      736,     2944, 0x55d1f308
0,      11872,      11872,      736,     2944, 0x7e92f50b
0,      12608,      12608,      736,     2944, 0xe9e91eed
0,      13344,      13344,      736,     2944, 0x80af2ce0
0,      14080,      14080,      736,     2944, 0xc67ffb07
0,      14816,      14816,      736,     2944, 0x7aaded27
0,      15552,      15552,      736,     2944, 0x14a024fd
0,      16288,      16288,      736,     2944, 0x26e8df1f
0,      17024,      17024,      736,     2944, 0x2688df44
0,      17760,      17760,      736,     2944, 0x4b9cdd33
0,      18496,      18496,      736,     2944, 0x10c2f11c
0,      19232,      19232,      736,     2944, 0xc4e3ad6d
0,      19968,      19968,      736,     2944, 0xbeb1a78e
0,      20704,      20704,      736,     2944, 0x283d4e7f
0,      21440,      21440,      736,     2944, 0x4acf65e0
0,      22176,      22176,      736,     2944, 0x0ca29b8c
0,      22912,      22912,      736,     2944, 0x003fae34
0,      23648,      23648,      736,     2944, 0x2acfec7e
0,      24384,      24384,      736,     2944, 0xea6fc6fe
0,      25120,      25120,      736,     2944, 0xf5daec2f
0,      25856,      25856,      736,     2944, 0x8d33ed7a
0,      26592,      26592,      736,     2944, 0xc328f984
0,      27328,      27328,      736,     2944, 0x6e0b58d3
0,      28064,      28064,      736,     2944, 0xe282dc3f
0,      28800,      28800,      736,     2944, 0xbf9bf3e6
0,      29536,      29536,      736,     2944, 0xd7b7d7e3
0,      30272,      30272,      736,     2944, 0x4e87b6ab
0,      31008,      31008,      736,     2944, 0x7b8ce8d6
0,      31744,      31744,      736,     2944, 0xd42991a5
0,      32480,      32480,      736,     2944, 0x452c98ca
0,      33216,      33216,      736,     2944, 0x6d27832d
0,      33952,      33952,      736,     2944, 0xa558720e
0,      34688,      34688,      736,     2944, 0x0a31bec0
0,      35424,      35424,      736,     2944, 0x28431384
0,      36160,      36160,      736,     2944, 0xd5e9fb3d
0,      36896,      36896,      736,     2944, 0x34f0e9f8
0,      37632,      37632,      736,     2944, 0x979432df
0,      38368,      38368,      736,     2944, 0xb00acd4d
0,      39104,      39104,      736,     2944, 0x726bffd6
0,      39840,      39840,      736,     2944, 0xa1f39a6d
0,      40576,      40576,      736,     2944, 0xf6a8e30e
0,      41312,      41312,      736,     2944, 0x608e9e06
0,      42048,      42048,      736,     2944, 0x4ec58bc3
0,      42784,      42784,      736,     2944, 0x6d5c8458
0,      43520,      43520,      736,     2944, 0x76a0abbd
0,      44256,      44256,      736,     2944, 0xf830e8a6
0,      44992,      44992,      736,     2944, 0x1bdd7bec
0,      45728,      45728,      736,     2944, 0x3c1bd187
0,      46464,      46464,      736,     2944, 0xf52cf697
0,      47200,      47200,      736,     2944, 0x8f65b773
0,      47936,      47936,      736,     2944, 0xf8b5b598
0,      48672,      48672,      736,     2944, 0xcd87d5ed
0,      49408,      49408,      736,     2944, 0x672ac02a
0,      50144,      50144,      736,     2944, 0x1d5d13ed
0,      50880,      50880,      736,     2944, 0xe298e3d4
0,      51616,      51616,      736,     2944, 0x3d2e9c32
0,      52352,      52352,      736,     2944, 0xf3a39259
0,      53088,      53088,      736,     2944, 0x930ae8f8
0,      53824,      53824,      736,     2944, 0x8562aff7
0,      54560,      54560,      736,     2944, 0x9cd6c6a7
0,      55296,      55296,      736,     2944, 0x2709dc5c
0,      56032,      56032,      736,     2944, 0xcbe31816
0,      56768,      56768,      736,     2944, 0xd7876ec4
0,      57504,      57504,      736,     2944, 0xc2468b6a
0,      58240,      58240,      736,     2944, 0x76043e84
0,      58976,      58976,      736,     2944, 0xd2c35bf0
0,      59712,      59712,      736,     2944, 0x63de6061
0,      60448,      60448,      736,     2944, 0xd8f6ed1d
0,      61184,      61184,      736,     2944, 0xe034928a
0,      61920,      61920,      736,     2944, 0xa044da74
0,      62656,      62656,      736,     2944, 0xee410dba
0,      63392,      63392,      736,     2944, 0x8e020c7c
0,      64128,      64128,      736,     2944, 0x73057ddb
0,      64864,      64864,      736,     2944, 0xdee5cc18
0,      65600,      65600,      736,     2944, 0xf4d31dec
0,      66336,      66336,      736,     2944, 0xe8131e1c
0,      67072,      67072,      736,     2944, 0x8ae69c95
0,      67808,      67808,      736,     2944, 0x791c0bf4
0,      68544,      68544,      736,     2944, 0xd45a10db
0,      69280,      69280,      736,     2944, 0x3a72b010
0,      70016,      70016,      736,     2944, 0x6a4a0411
0,      70752,      70752,      736,     2944, 0xd77ab7f5
0,      71488,      71488,      736,     2944, 0xe3bf4fe5
0,      72224,      72224,      736,     2944, 0x12db1be8
0,      72960,      72960,      736,     2944, 0x345210b0
0,      73696,      73696,      736,     2944, 0xcfc1f892
0,      74432,      74432,      736,     2944, 0x5b0a80bb
0,      75168,      75168,      736,     2944, 0x31ab1168
0,      75904,      75904,      736,     2944, 0xd4a4bb0a
0,      76640,      76640,      736,     2944, 0x8e211c8f
0,      77376,      77376,      736,     2944, 0xcf464d50
0,      78112,      78112,      736,     2944, 0xe74ff3d6
0,      78848,      78848,      736,     2944, 0x6274635f
0,      79584,      79584,      736,     2944, 0xc34c9f64
0,      80320,      80320,      736,     2944, 0xbb997537
0,      81056,      81056,      736,     2944, 0x3600da72
0,      81792,      81792,      736,     2944, 0x343e15f4
0,      82528,      82528,      736,     2944, 0x17bc58a8
0,      83264,      83264,      736,     2944, 0x3dcbd3ff
0,      84000,      84000,      736,     2944, 0x1d422371
0,      84736,      84736,      736,     2944, 0xe2b83d9d
0,      85472,      85472,      736,     2944, 0x65388409
0,      86208,      86208,      736,     2944, 0xafbca269
0,      86944,      86944,      736,     2944, 0x2d00c0fb
0,      87680,      87680,      736,     2944, 0xbac9c503
0,      88416,      88416,      736,     2944, 0x9990768d
0,      89152,      89152,      736,     2944, 0x8ba978be
0,      89888,      89888,      736,     2944, 0x5a44a2f5
0,      90624,      90624,      736,     2944, 0xa4b6f3b8
0,      91360,      91360,      736,     2944, 0x631b6b9f
0,      92096,      92096,      736,     2944, 0x4c840923
0,      92832,      92832,      736,     2944, 0x7c105df3
0,      93568,      93568,      736,     2944, 0x01bcb213
0,      94304,      94304,      736,     2944, 0x95cffbf7
0,      95040,      95040,      736,     2944, 0x170a9c3a
0,      95776,      95776,      736,     2944, 0x59e09d61
0,      96512,      96512,      736,     2944, 0x3ea0f205
0,      97248,      97248,      736,     2944, 0xd9ea1a3a
0,      97984,      97984,      736,     2944, 0xaf32d704
0,      98720,      98720,      736,     2944, 0x2d473392
0,      99456,      99456,      736,     2944, 0x2a8ec544
0,     100192,     100192,      736,     2944, 0x883c8838
0,     100928,     100928,      736,     2944, 0xfaf4d789
0,     101664,     101664,      736,     2944, 0xcb315b65
0,     102400,     102400,      736,     2944, 0x980c93b0
0,     103136,     103136,      736,     2944, 0x0819583b
0,     103872,     103872,      736,     2944, 0xf126e5b5
0,     104608,     104608,      736,     2944, 0x88836255
0,     105344,     105344,      736,     2944, 0xc8ae8ca8
0,     106080,     106080,      736,     2944, 0xf0750551
0,     106816,     106816,      736,     2944, 0x3dfe13a3
0,     107552,     107552,      736,     2944, 0xf2aa957b
0,     108288,     108288,      736,     2944, 0xa77b79a3
0,     109024,     109024,      736,     2944, 0xb1038284
0,     109760,     109760,      736,     2944, 0xf96be3ba
0,     110496,     110496,      736,     2944, 0x1ae6e293
0,     111232,     111232,      736,     2944, 0x2059d020
0,     111968,     111968,      736,     2944, 0x7e6c9996
0,     112704,     112704,      736,     2944, 0x3108b540
0,     113440,     113440,      736,     2944, 0x75133155
0,     114176,     114176,      736,     2944, 0x59a19226
0,     114912,     114912,      736,     2944, 0x3140c138
0,     115648,     115648,      736,     2944, 0x7570d3be
0,     116384,     116384,      736,     2944, 0x54fd4ff6
0,     117120,     117120,      736,     2944, 0x23bcf6dc
0,     117856,     117856,      736,     2944, 0x2d26489b
0,     118592,     118592,      736,     2944, 0x4b37bf13
0,     119328,     119328,      736,     2944, 0x12812ec9
0,     120064,     120064,      736,     2944, 0xc4a609dd
0,     120800,     120800,      736,     2944, 0x5a8c5b20
0,     121536,     121536,      736,     2944, 0xd05d110f
0,     122272,     122272,      736,     2944, 0xceea6f1f
0,     123008,     123008,      736,     2944, 0x4033b0a5
0,     123744,     123744,      736,     2944, 0x101895ce
0,     124480,     124480,      736,     2944, 0xd6c6809f
0,     125216,     125216,      736,     2944, 0x197bda7e
0,     125952,     125952,      736,     2944, 0x96fb3e4b
0,     126688,     126688,      736,     2944, 0x12a6e3de
0,     127424,     127424,      736,     2944, 0xfb80e466
0,     128160,     128160,      736,     2944, 0xedb8c2fc
0,     128896,     128896,      254,     1016, 0x30e56ca5
